Coordinates
version=1
nRows=6
nColumns=36
inDegrees=yes

Units are S.I. units (second, meters, Newtons, ...)
If the header above contains a line with 'inDegrees', this indicates whether rotational values are in degrees (yes) or radians (no).

endheader
time	pelvis_tilt	pelvis_list	pelvis_rotation	pelvis_tx	pelvis_ty	pelvis_tz	hip_flexion_r	hip_adduction_r	hip_rotation_r	knee_angle_r	knee_angle_r_beta	ankle_angle_r	subtalar_angle_r	mtp_angle_r	hip_flexion_l	hip_adduction_l	hip_rotation_l	knee_angle_l	knee_angle_l_beta	ankle_angle_l	subtalar_angle_l	mtp_angle_l	lumbar_extension	lumbar_bending	lumbar_rotation	arm_flex_r	arm_add_r	arm_rot_r	elbow_flex_r	pro_sup_r	arm_flex_l	arm_add_l	arm_rot_l	elbow_flex_l	pro_sup_l
      1.46250000	    -11.77250837	      0.55543646	     -1.50706123	     -1.02580180	      1.40351002	     -0.05051299	      7.03369356	      0.46721926	      3.19588013	      2.31651034	      0.04043073	      7.90265042	      2.35545464	     -7.49999987	      6.83228139	      0.21805614	      1.37170090	      3.15207282	      0.05501405	      6.75193642	      1.21928159	     -7.49999987	     -9.36442658	      0.22310513	      0.03164192	    -25.32130255	    -12.28162577	     -9.39689508	     34.82568566	     79.71721448	    -19.10803281	    -13.21229286	    -18.21197195	     12.36794835	     62.96000365
      1.46666670	    -11.93418732	      0.51627035	     -1.40952783	     -1.02662186	      1.40055183	     -0.04999593	      7.26933946	      0.52681983	      3.08502013	      2.44006934	      0.04258724	      7.88839820	      2.29366331	     -7.49999987	      7.02400364	      0.15229832	      1.26191477	      3.23929492	      0.05653636	      6.78392046	      1.45262121	     -7.49999987	     -9.57995765	      0.38180788	     -0.25398951	    -25.38627541	    -12.89894189	     -7.10470433	     35.32674582	     77.78044234	    -19.89676257	    -13.51213233	    -16.03738378	     11.84189204	     61.21583951
      1.47083330	    -12.01187535	      0.47784237	     -1.27781922	     -1.02650617	      1.39811914	     -0.04861967	      7.38712778	      0.60200610	      2.93920879	      2.49847072	      0.04360654	      7.92581203	      2.30007116	     -7.49999987	      7.17376345	      0.06938618	      1.14719472	      3.41124194	      0.05953740	      6.86860625	      1.69697627	     -7.49999987	     -9.98244991	      0.51637626	     -0.61994559	    -25.69729749	    -13.04549301	     -6.68651106	     36.45704597	     75.57897020	    -20.84724748	    -13.66284510	    -16.41056123	     11.95760262	     60.74137412
      1.47500000	    -12.25795639	      0.42754864	     -1.13454446	     -1.02425228	      1.40463443	     -0.05075371	      7.68249379	      0.66636255	      2.80639029	      2.59523955	      0.04529548	      7.73260301	      2.24398979	     -7.49999987	      7.49255695	     -0.00765752	      1.06844588	      3.52317112	      0.06149094	      6.78915144	      2.01638599	     -7.49999987	     -9.94219106	      0.63265653	     -0.76076084	    -25.97633311	    -13.28130973	     -5.74603800	     37.07040002	     75.92610828	    -20.89751729	    -13.71850341	    -16.26593646	     10.50015895	     60.62301461
      1.47916670	    -12.34823032	      0.40311944	     -1.07973439	     -1.02542992	      1.40067206	     -0.04997805	      7.86077447	      0.71060787	      2.73910778	      2.73674095	      0.04776514	      7.66831814	      2.11934781	     -7.49999987	      7.65757701	     -0.04338547	      0.84578194	      3.68705260	      0.06435121	      6.84443299	      2.26320556	     -7.49999987	    -10.25181349	      0.63060311	     -0.78548605	    -26.10547272	    -13.65006365	     -4.22527422	     37.30639337	     76.03853884	    -21.47893327	    -13.94657375	    -14.78336723	      9.89139618	     60.31415942
      1.48333330	    -12.53992796	      0.37485618	     -0.91114058	     -1.02353564	      1.39992484	     -0.05107721	      8.09731566	      0.73176709	      2.51705047	      2.81694542	      0.04916497	      7.67977862	      2.06106566	     -7.49999987	      7.92466691	     -0.07156658	      0.83525510	      3.83450660	      0.06692477	      6.77330138	      2.39740693	     -7.49999987	    -10.41335155	      0.71497713	     -0.96323389	    -26.63437710	    -13.78524997	     -4.07496129	     38.23299478	     75.54736737	    -22.11331007	    -14.09842216	    -14.68981143	      9.68367031	     60.18760052
